<svg version="1.2" xmlns="http://www.w3.org/2000/svg" viewBox="0 0 3303 2000" width="3303" height="2000">
	<title>5259881_20616-ai</title>
	<defs>
		<linearGradient id="g1" x2="1" gradientUnits="userSpaceOnUse" gradientTransform="matrix(0,1191.094,-2870.623,0,1935.686,717.83)">
			<stop offset="0" stop-color="#eaf1ff"/>
			<stop offset="1" stop-color="#ffffff"/>
		</linearGradient>
		<linearGradient id="g2" x2="1" gradientUnits="userSpaceOnUse" gradientTransform="matrix(259.906,0,0,53.638,1252.96,620.18)">
			<stop offset="0" stop-color="#d5e4ff"/>
			<stop offset="1" stop-color="#edfffe"/>
		</linearGradient>
		<linearGradient id="g3" x2="1" gradientUnits="userSpaceOnUse" gradientTransform="matrix(259.906,0,0,53.637,1723.029,640.092)">
			<stop offset="0" stop-color="#d5e4ff"/>
			<stop offset="1" stop-color="#edfffe"/>
		</linearGradient>
		<linearGradient id="g4" x2="1" gradientUnits="userSpaceOnUse" gradientTransform="matrix(0,-1306.121,1785.246,0,1191.931,1618.837)">
			<stop offset="0" stop-color="#303669"/>
			<stop offset="1" stop-color="#4daeff"/>
		</linearGradient>
		<linearGradient id="g5" x2="1" gradientUnits="userSpaceOnUse" gradientTransform="matrix(0,-1221.255,1492.275,0,1231.639,1734.966)">
			<stop offset="0" stop-color="#303669"/>
			<stop offset="1" stop-color="#4daeff"/>
		</linearGradient>
		<linearGradient id="g6" x2="1" gradientUnits="userSpaceOnUse" gradientTransform="matrix(0,293.626,-293.627,0,1797.168,1043.87)">
			<stop offset="0" stop-color="#303257"/>
			<stop offset="1" stop-color="#303b7d"/>
		</linearGradient>
		<linearGradient id="g7" x2="1" gradientUnits="userSpaceOnUse" gradientTransform="matrix(180.732,0,0,17.132,1256.898,168.255)">
			<stop offset="0" stop-color="#d5e4ff"/>
			<stop offset="1" stop-color="#edfffe"/>
		</linearGradient>
		<linearGradient id="g8" x2="1" gradientUnits="userSpaceOnUse" gradientTransform="matrix(156.786,0,0,17.131,1256.898,206.461)">
			<stop offset="0" stop-color="#d5e4ff"/>
			<stop offset="1" stop-color="#edfffe"/>
		</linearGradient>
		<linearGradient id="g9" x2="1" gradientUnits="userSpaceOnUse" gradientTransform="matrix(252.03,0,0,17.132,1256.898,244.667)">
			<stop offset="0" stop-color="#d5e4ff"/>
			<stop offset="1" stop-color="#edfffe"/>
		</linearGradient>
		<linearGradient id="g10" x2="1" gradientUnits="userSpaceOnUse" gradientTransform="matrix(122.173,0,0,32.579,2308.038,1319.607)">
			<stop offset="0" stop-color="#d5e4ff"/>
			<stop offset="1" stop-color="#edfffe"/>
		</linearGradient>
		<linearGradient id="g11" x2="1" gradientUnits="userSpaceOnUse" gradientTransform="matrix(122.173,0,0,32.579,2308.038,1380.606)">
			<stop offset="0" stop-color="#d5e4ff"/>
			<stop offset="1" stop-color="#edfffe"/>
		</linearGradient>
		<linearGradient id="g12" x2="1" gradientUnits="userSpaceOnUse" gradientTransform="matrix(122.173,0,0,32.58,2308.038,1441.604)">
			<stop offset="0" stop-color="#d5e4ff"/>
			<stop offset="1" stop-color="#edfffe"/>
		</linearGradient>
		<linearGradient id="g13" x2="1" gradientUnits="userSpaceOnUse" gradientTransform="matrix(0,-291.094,291.093,0,2115.181,745.465)">
			<stop offset="0" stop-color="#80c0ff"/>
			<stop offset="1" stop-color="#edfffe"/>
		</linearGradient>
		<linearGradient id="g14" x2="1" gradientUnits="userSpaceOnUse" gradientTransform="matrix(148.295,0,0,148.304,2144.978,534.838)">
			<stop offset="0" stop-color="#abc9ff"/>
			<stop offset="1" stop-color="#edfffe"/>
		</linearGradient>
		<linearGradient id="g15" x2="1" gradientUnits="userSpaceOnUse" gradientTransform="matrix(188.606,0,0,188.591,1297.013,630.153)">
			<stop offset="0" stop-color="#d5e4ff"/>
			<stop offset="1" stop-color="#edfffe"/>
		</linearGradient>
		<linearGradient id="g16" x2="1" gradientUnits="userSpaceOnUse" gradientTransform="matrix(98.887,0,0,17.52,1801.363,1114.473)">
			<stop offset="0" stop-color="#d5e4ff"/>
			<stop offset="1" stop-color="#edfffe"/>
		</linearGradient>
		<linearGradient id="g17" x2="1" gradientUnits="userSpaceOnUse" gradientTransform="matrix(98.887,0,0,17.519,1801.363,1084.063)">
			<stop offset="0" stop-color="#d5e4ff"/>
			<stop offset="1" stop-color="#edfffe"/>
		</linearGradient>
		<linearGradient id="g18" x2="1" gradientUnits="userSpaceOnUse" gradientTransform="matrix(98.887,0,0,17.519,1801.363,1053.654)">
			<stop offset="0" stop-color="#d5e4ff"/>
			<stop offset="1" stop-color="#edfffe"/>
		</linearGradient>
		<linearGradient id="g19" x2="1" gradientUnits="userSpaceOnUse" gradientTransform="matrix(0,-533.941,698.114,0,1078.087,1786.064)">
			<stop offset="0" stop-color="#303669"/>
			<stop offset="1" stop-color="#4daeff"/>
		</linearGradient>
		<linearGradient id="g20" x2="1" gradientUnits="userSpaceOnUse" gradientTransform="matrix(0,-533.941,1149.662,0,1787.033,1786.064)">
			<stop offset="0" stop-color="#303669"/>
			<stop offset="1" stop-color="#4daeff"/>
		</linearGradient>
		<linearGradient id="g21" x2="1" gradientUnits="userSpaceOnUse" gradientTransform="matrix(194.339,57.538,-53.926,182.139,2273.053,955.046)">
			<stop offset="0" stop-color="#303257"/>
			<stop offset="1" stop-color="#303b7d"/>
		</linearGradient>
		<linearGradient id="g22" x2="1" gradientUnits="userSpaceOnUse" gradientTransform="matrix(264.899,78.428,-41.604,140.521,2256.986,1081.723)">
			<stop offset="0" stop-color="#303257"/>
			<stop offset="1" stop-color="#303b7d"/>
		</linearGradient>
		<linearGradient id="g23" x2="1" gradientUnits="userSpaceOnUse" gradientTransform="matrix(880.658,1898.508,-5653.845,2622.641,1598.161,49.565)">
			<stop offset="0" stop-color="#abc9ff"/>
			<stop offset="1" stop-color="#edfffe"/>
		</linearGradient>
		<linearGradient id="g24" x2="1" gradientUnits="userSpaceOnUse" gradientTransform="matrix(0,425.909,-581.207,0,1969.426,1656.232)">
			<stop offset="0" stop-color="#5ca3ff"/>
			<stop offset="1" stop-color="#386aff"/>
		</linearGradient>
		<linearGradient id="g25" x2="1" gradientUnits="userSpaceOnUse" gradientTransform="matrix(0,449.482,-613.375,0,1098.808,1656.232)">
			<stop offset="0" stop-color="#5ca3ff"/>
			<stop offset="1" stop-color="#386aff"/>
		</linearGradient>
	</defs>
	<style>
		.s0 { fill: #fafafa } 
		.s1 { fill: url(#g1) } 
		.s2 { fill: #bbd070 } 
		.s3 { fill: #97a43c } 
		.s4 { fill: #48753a } 
		.s5 { fill: #ebebeb } 
		.s6 { fill: url(#g2) } 
		.s7 { fill: url(#g3) } 
		.s8 { fill: url(#g4) } 
		.s9 { fill: #ffffff } 
		.s10 { fill: url(#g5) } 
		.s11 { fill: url(#g6) } 
		.s12 { fill: url(#g7) } 
		.s13 { fill: url(#g8) } 
		.s14 { fill: url(#g9) } 
		.s15 { fill: url(#g10) } 
		.s16 { fill: url(#g11) } 
		.s17 { fill: url(#g12) } 
		.s18 { opacity: .2;fill: url(#g13) } 
		.s19 { fill: url(#g14) } 
		.s20 { fill: #15456e } 
		.s21 { fill: #1b5c91 } 
		.s22 { fill: #2273b5 } 
		.s23 { fill: #ffcb55 } 
		.s24 { fill: url(#g15) } 
		.s25 { fill: #ffad5b } 
		.s26 { fill: url(#g16) } 
		.s27 { fill: url(#g17) } 
		.s28 { fill: url(#g18) } 
		.s29 { fill: #d8e7ff } 
		.s30 { fill: url(#g19) } 
		.s31 { fill: url(#g20) } 
		.s32 { fill: url(#g21) } 
		.s33 { fill: url(#g22) } 
		.s34 { fill: url(#g23) } 
		.s35 { fill: #eea886 } 
		.s36 { fill: #d4ebfe } 
		.s37 { fill: #7ac6ff } 
		.s38 { fill: #323657 } 
		.s39 { fill: #424773 } 
		.s40 { fill: #292c47 } 
		.s41 { fill: #e2d2ca } 
		.s42 { fill: url(#g24) } 
		.s43 { fill: #252840 } 
		.s44 { fill: #ffbf55 } 
		.s45 { fill: #5f8cc9 } 
		.s46 { fill: #3a3f47 } 
		.s47 { fill: #a77860 } 
		.s48 { fill: #b08439 } 
		.s49 { fill: #5e5853 } 
		.s50 { fill: #91887f } 
		.s51 { fill: #6e6760 } 
		.s52 { fill: #807066 } 
		.s53 { fill: #eea987 } 
		.s54 { fill: #363a5e } 
		.s55 { fill: #313657 } 
		.s56 { fill: #eddad3 } 
		.s57 { fill: #cfbeb8 } 
		.s58 { fill: #707070 } 
		.s59 { fill: #a1a1a1 } 
		.s60 { fill: #fae6de } 
		.s61 { fill: #d6c5be } 
		.s62 { fill: #828282 } 
		.s63 { fill: url(#g25) } 
	</style>
	<g id="Слой 1">
		<g id="&lt;Group&gt;">
			<path id="&lt;Path&gt;" class="s0" d="m3302.8 0v2000h-3302.8v-2000z"/>
			<path id="&lt;Path&gt;" class="s1" d="m3302.8 986v1014h-3302.8v-1111.7h125.4v197.4h203.8v-247.7h160.9v104.2h83.7l72.4-72.4h82.4v-240.2h230.4v356.4h235.4v85.9h91.3v-129.6h347.9v143.4h133.1v-197.4h203v294.6h11.9v-396.9h178.8v102.3h151.8v197.4h203.7v-247.7h160.9v104.2h83.7l72.5-72.4h82.3v-240.2h230.3v356.4z"/>
			<g id="&lt;Group&gt;">
				<g id="&lt;Group&gt;">
					<g id="&lt;Group&gt;">
						<g id="&lt;Group&gt;">
							<g id="&lt;Group&gt;">
								<path id="&lt;Path&gt;" class="s2" d="m837.6 663.5c0 0 212.8-91.4 295 32.5 82.1 123.9-33 116.2-33 116.2 0 0-6.4 57.3-115-78.3-51.3-63.9-147-70.4-147-70.4z"/>
							</g>
						</g>
					</g>
					<g id="&lt;Group&gt;">
						<g id="&lt;Group&gt;">
							<g id="&lt;Group&gt;">
								<path id="&lt;Path&gt;" class="s3" d="m800.5 310.3c0 0 188.9-58.6 313.2 181 124.4 239.5 236.2 258.5 236.2 258.5 0 0-427.2 76.6-549.4-439.5z"/>
							</g>
						</g>
					</g>
					<g id="&lt;Group&gt;">
						<g id="&lt;Group&gt;">
							<g id="&lt;Group&gt;">
								<path id="&lt;Path&gt;" class="s4" d="m1271.3 763.6c-16.5 79.6-198.8-74-216.7-211.7-18-137.7 17.8-238.8-18.5-327.1 0 0 316.7 146.6 235.2 538.8z"/>
							</g>
						</g>
					</g>
				</g>
				<g id="&lt;Group&gt;">
					<path id="&lt;Path&gt;" class="s5" d="m1320.7 364.6c-7.5 0-14.7 1.1-21.4 3.2-8.7-21.2-30.4-36.2-55.8-36.2-28.2 0-51.8 18.5-58.2 43.5-4.9-1.9-10.2-2.9-15.8-2.9-23.4 0-42.5 18.1-42.5 40.4h62.2 22.9 48.6 37.1 82.8c0-26.5-26.8-48-59.9-48z"/>
				</g>
				<g id="&lt;Group&gt;">
					<path id="&lt;Path&gt;" class="s5" d="m944.9 524.3c-5.7 0-11.2 0.9-16.2 2.4-6.7-16.1-23.2-27.6-42.6-27.6-21.5 0-39.5 14.2-44.4 33.2-3.7-1.4-7.8-2.2-12-2.2-17.9 0-32.4 13.8-32.4 30.9h47.4 17.4 37.1 28.3 63.1c0-20.3-20.4-36.7-45.7-36.7z"/>
				</g>
			</g>
			<path id="&lt;Path&gt;" class="s6" d="m1488.8 673.8h-211.7c-13.4 0-24.1-10.8-24.1-24.1v-5.4c0-13.3 10.7-24.1 24.1-24.1h211.7c13.3 0 24.1 10.8 24.1 24.1v5.4c0 13.3-10.8 24.1-24.1 24.1z"/>
			<path id="&lt;Path&gt;" class="s7" d="m1958.8 693.7h-211.7c-13.3 0-24.1-10.8-24.1-24.1v-5.4c0-13.3 10.8-24.1 24.1-24.1h211.7c13.3 0 24.1 10.8 24.1 24.1v5.4c0 13.3-10.8 24.1-24.1 24.1z"/>
			<path id="&lt;Path&gt;" class="s8" d="m2427.2 1214.5l-135.3 61.5-135.3 61.5-177.1 80.5-375.2 170.6-416-316.7-141.5-107.7-113.5-86.4-115.3-87.8c104.1-335.3 416.8-578.7 786.3-578.7 447.9 0 812.3 357.8 822.9 803.2z"/>
			<path id="&lt;Path&gt;" class="s9" d="m2293.1 1234.5q0 20.9-1.2 41.5l-135.3 61.5-177.1 80.5-375.2 170.6-416-316.7-141.5-107.7-113.5-86.4c71-305 344.4-532.2 671-532.2 380.4 0 688.8 308.5 688.8 688.9z"/>
			<path id="&lt;Path&gt;" class="s10" d="m2166.1 1234.5c0 35.2-3.3 69.6-9.5 103l-177.1 80.5-375.2 170.6-416-316.7-141.5-107.7c34.6-277.1 271-491.5 557.5-491.5 310.2 0 561.8 251.5 561.8 561.8z"/>
			<path id="&lt;Path&gt;" class="s9" d="m2021.9 1234.5c0 65.8-15.2 128.1-42.4 183.5l-375.2 170.6-416-316.7q-1.7-18.5-1.7-37.4c0-230.7 187-417.6 417.7-417.6 230.6 0 417.6 186.9 417.6 417.6z"/>
			<path id="&lt;Path&gt;" class="s11" d="m1797.2 1234.5c0 106.5-86.4 192.9-192.9 192.9-106.6 0-193-86.4-193-192.9 0-106.5 86.4-192.9 193-192.9 106.5 0 192.9 86.4 192.9 192.9z"/>
			<path id="&lt;Path&gt;" class="s12" d="m1429.1 185.4h-163.6c-4.8 0-8.6-3.8-8.6-8.6 0-4.7 3.8-8.5 8.6-8.5h163.6c4.7 0 8.5 3.8 8.5 8.5 0 4.8-3.8 8.6-8.5 8.6z"/>
			<path id="&lt;Path&gt;" class="s13" d="m1405.1 223.6h-139.6c-4.8 0-8.6-3.8-8.6-8.6 0-4.7 3.8-8.5 8.6-8.5h139.6c4.7 0 8.6 3.8 8.6 8.5 0 4.8-3.9 8.6-8.6 8.6z"/>
			<path id="&lt;Path&gt;" class="s14" d="m1500.4 261.8h-234.9c-4.8 0-8.6-3.8-8.6-8.6 0-4.7 3.8-8.5 8.6-8.5h234.9c4.7 0 8.5 3.8 8.5 8.5 0 4.8-3.8 8.6-8.5 8.6z"/>
			<g id="&lt;Group&gt;">
				<g id="&lt;Group&gt;">
					<path id="&lt;Path&gt;" class="s15" d="m2422.1 1352.2h-106c-4.4 0-8.1-3.6-8.1-8.1v-16.4c0-4.5 3.7-8.1 8.1-8.1h106c4.5 0 8.1 3.6 8.1 8.1v16.4c0 4.5-3.6 8.1-8.1 8.1z"/>
				</g>
			</g>
			<g id="&lt;Group&gt;">
				<g id="&lt;Group&gt;">
					<path id="&lt;Path&gt;" class="s16" d="m2422.1 1413.2h-106c-4.4 0-8.1-3.6-8.1-8.1v-16.4c0-4.5 3.7-8.1 8.1-8.1h106c4.5 0 8.1 3.6 8.1 8.1v16.4c0 4.5-3.6 8.1-8.1 8.1z"/>
				</g>
			</g>
			<g id="&lt;Group&gt;">
				<g id="&lt;Group&gt;">
					<path id="&lt;Path&gt;" class="s17" d="m2422.1 1474.2h-106c-4.4 0-8.1-3.6-8.1-8.1v-16.4c0-4.5 3.7-8.1 8.1-8.1h106c4.5 0 8.1 3.6 8.1 8.1v16.4c0 4.5-3.6 8.1-8.1 8.1z"/>
				</g>
			</g>
			<g id="&lt;Group&gt;">
				<path id="&lt;Path&gt;" class="s18" d="m2300.1 712.9h-161.9c-12.7 0-23-10.3-23-23v-161.9c0-12.7 10.3-23 23-23h161.9c12.7 0 23 10.3 23 23v161.9c0 12.7-10.3 23-23 23z"/>
				<g id="&lt;Group&gt;">
					<g id="&lt;Group&gt;">
						<g id="&lt;Group&gt;">
							<path id="&lt;Compound Path&gt;" fill-rule="evenodd" class="s19" d="m2244.1 678.8c-29.9 10.7-62.1 1-81.5-21.8-4.6-5.4-8.5-11.6-11.4-18.4q-1-2.3-1.9-4.6c-5.6-15.8-5.6-32.3-0.9-47.1 6.7-21.4 23-39.6 45.8-47.7 7.5-2.7 15.1-4.1 22.7-4.3 31.3-1 60.9 18.1 72 49.1 13.8 38.6-6.3 81-44.8 94.8zm27.4-88.5c-8.4-23.3-30.6-37.6-54-36.9-5.7 0.2-11.5 1.2-17.1 3.3-17.1 6.1-29.3 19.7-34.3 35.7-3.5 11.2-3.5 23.5 0.7 35.3q0.6 1.8 1.4 3.5c2.2 5.1 5.1 9.7 8.6 13.8 14.5 17.1 38.7 24.3 61 16.3 28.9-10.3 44-42.1 33.7-71z"/>
						</g>
					</g>
					<g id="&lt;Group&gt;">
						<g id="&lt;Group&gt;">
							<path id="&lt;Path&gt;" class="s20" d="m2166.1 592.4l-17.7-5.5c6.7-21.4 23-39.6 45.8-47.7 7.5-2.7 15.1-4.1 22.7-4.3l0.6 18.5c-5.7 0.2-11.5 1.2-17.1 3.3-17.1 6.1-29.3 19.7-34.3 35.7z"/>
						</g>
					</g>
					<g id="&lt;Group&gt;">
						<g id="&lt;Group&gt;">
							<path id="&lt;Path&gt;" class="s21" d="m2168.2 631.2l-17 7.4q-1-2.3-1.9-4.6c-5.6-15.8-5.6-32.3-0.9-47.1l17.7 5.5c-3.5 11.2-3.5 23.5 0.7 35.3q0.6 1.8 1.4 3.5z"/>
						</g>
					</g>
					<g id="&lt;Group&gt;">
						<g id="&lt;Group&gt;">
							<path id="&lt;Path&gt;" class="s22" d="m2162.6 657c-4.6-5.4-8.5-11.6-11.4-18.4l17-7.4c2.2 5.1 5.1 9.7 8.6 13.8z"/>
						</g>
					</g>
				</g>
			</g>
			<g id="&lt;Group&gt;">
				<path id="&lt;Path&gt;" class="s23" d="m942.8 842.1h138.4v100.3 21.2l-21.1-21.2h-117.3z"/>
			</g>
			<g id="&lt;Group&gt;">
				<g id="&lt;Group&gt;">
					<g id="&lt;Group&gt;">
						<path id="&lt;Compound Path&gt;" fill-rule="evenodd" class="s24" d="m1476.5 764.8c-17.2 36.4-54.8 56.7-92.8 53.6-9-0.7-18.1-2.7-26.9-6.2q-2.9-1.2-5.8-2.5c-19.3-9.1-34-23.9-43.2-41.5-13.2-25.3-14.9-56.3-1.7-84.1 4.3-9.2 10-17.3 16.6-24.3 27.2-29 71-38.5 108.9-20.6 47.1 22.3 67.2 78.5 44.9 125.6zm-55-104.2c-28.4-13.5-61.2-6.3-81.7 15.4-4.9 5.2-9.1 11.3-12.4 18.2-9.8 20.9-8.6 44.1 1.3 63.1 6.9 13.1 17.9 24.2 32.4 31q2.1 1.1 4.3 1.9c6.6 2.6 13.4 4.2 20.2 4.7 28.5 2.3 56.7-12.9 69.6-40.2 16.7-35.3 1.6-77.5-33.7-94.1z"/>
					</g>
				</g>
				<g id="&lt;Group&gt;">
					<g id="&lt;Group&gt;">
						<path id="&lt;Path&gt;" class="s25" d="m1328.7 757.3l-20.9 10.9c-13.2-25.3-14.9-56.3-1.7-84.1 4.3-9.2 10-17.3 16.6-24.3l17.1 16.2c-4.9 5.2-9.1 11.3-12.4 18.2-9.8 20.9-8.6 44.1 1.3 63.1z"/>
					</g>
				</g>
				<g id="&lt;Group&gt;">
					<g id="&lt;Group&gt;">
						<path id="&lt;Path&gt;" class="s25" d="m1365.4 790.2l-8.6 22q-2.9-1.2-5.8-2.5c-19.3-9.1-34-23.9-43.2-41.5l20.9-10.9c6.9 13.1 17.9 24.2 32.4 31q2.1 1.1 4.3 1.9z"/>
					</g>
				</g>
			</g>
			<path id="&lt;Path&gt;" class="s26" d="m1900.3 1132h-98.9v-17.5h98.9z"/>
			<path id="&lt;Path&gt;" class="s27" d="m1900.3 1101.6h-98.9v-17.5h98.9z"/>
			<path id="&lt;Path&gt;" class="s28" d="m1900.3 1071.2h-98.9v-17.5h98.9z"/>
			<path id="&lt;Path&gt;" class="s29" d="m1289 905h-48.3v-13h48.3z"/>
			<path id="&lt;Path&gt;" class="s29" d="m1289 931.1h-48.3v-13.1h48.3z"/>
			<path id="&lt;Path&gt;" class="s29" d="m1289 879h-48.3v-13.1h48.3z"/>
			<g id="&lt;Group&gt;">
				<path id="&lt;Path&gt;" class="s30" d="m1390.1 1479.3l-394.3-300.3 2.4-3.2 394.3 300.3z"/>
			</g>
			<g id="&lt;Group&gt;">
				<path id="&lt;Path&gt;" class="s31" d="m1672.8 1599.2l-1.7-3.7 294-133.6 1.6 3.6z"/>
			</g>
			<g id="&lt;Group&gt;">
				<path id="&lt;Path&gt;" class="s32" d="m2433.1 1107.3l34.3-94.7-204.1 28.5-44.2 96.1z"/>
				<path id="&lt;Path&gt;" class="s33" d="m2291.4 1244.8l-58.6-81.2 204.2-28.6 68.5 80.5z"/>
				<path id="&lt;Path&gt;" class="s34" d="m1734.5 1233.2l702.5-98.2-3.9-27.7-702.8 98.2c-7.5 1.2-12.7 8.2-11.6 15.8 1 7.6 8 12.8 15.5 11.9h0.2q0 0 0.1 0 0 0 0 0z"/>
			</g>
			<g id="&lt;Group&gt;">
				<g id="&lt;Group&gt;">
					<path id="&lt;Path&gt;" class="s35" d="m1818.8 1213.8c0 0-10-1.9-15.1-7.1-5.1-5.1-18.7-8.9-23.1-8.7-4.4 0.1-36.6-0.6-39.3 1.1-2.7 1.7-0.4 5.6 2.8 5.6 3.2 0 33 2.3 33 2.3 0 0-33.1-0.8-35.3 1.2-2.2 2-2.2 6.1 2.3 7.5 0 0-3.4 6.8 4.7 7.4l16.2 1.2c0 0-8.6 0.9-3.1 4.4 2.9 1.9 21.4 1.1 25 2.1 3.7 1 26 0.5 26 0.5z"/>
				</g>
				<path id="&lt;Path&gt;" class="s36" d="m1860.1 1825c0 31.9 98.8 57.8 220.7 57.8 121.8 0 220.6-25.9 220.6-57.8 0-31.9-98.8-57.8-220.6-57.8-121.9 0-220.7 25.9-220.7 57.8z"/>
				<path id="&lt;Path&gt;" class="s37" d="m1873.4 1810.8c0 30 92.9 54.3 207.4 54.3 114.5 0 207.3-24.3 207.3-54.3 0-30-92.8-54.3-207.3-54.3-114.5 0-207.4 24.3-207.4 54.3z"/>
				<g id="&lt;Group&gt;">
					<path id="&lt;Path&gt;" class="s38" d="m2149.2 1143.9c0 0 6.1 84.5-10.4 94.6-10.4 6.3-51.6 27.7-50.4 31.7 1.2 4 23.3 35.7 23.3 35.7 0 0 79.2-52.2 81.7-68.6 2.5-16.1-3.9-123.7-14.7-128.7-8.2-3.7-12.5-0.6-22.8 7-14.4 10.7-6.7 28.3-6.7 28.3z"/>
				</g>
				<g id="&lt;Group&gt;">
					<g id="&lt;Group&gt;">
						<g id="&lt;Group&gt;">
							<path id="&lt;Path&gt;" class="s39" d="m2158.4 1758.7c0 0 2.5 17.1 2.8 19.7 0.3 2.5 27.4-1.5 27.4-1.5l2.2-20.4c0 0-29-0.2-32.4 2.2z"/>
						</g>
					</g>
				</g>
				<g id="&lt;Group&gt;">
					<g id="&lt;Group&gt;">
						<g id="&lt;Group&gt;">
							<path id="&lt;Path&gt;" class="s40" d="m2160.9 1776.2c0 0-8.6 10.3-16.9 14.8-8.3 4.5-21.3 6.3-26.2 10.9-3.6 3.4-12.9 17.8 21.6 17.5 34.4-0.3 51.1 2 54.8-3.5 3.6-5.5-5.4-40.9-5.4-40.9 0 0-8.2 3-27.9 1.2z"/>
						</g>
					</g>
				</g>
				<g id="&lt;Group&gt;">
					<g id="&lt;Group&gt;">
						<g id="&lt;Group&gt;">
							<path id="&lt;Path&gt;" class="s39" d="m2022.9 1758.7c0 0 2.4 17.1 2.8 19.7 0.3 2.5 27.3-1.5 27.3-1.5l2.2-20.4c0 0-28.9-0.2-32.3 2.2z"/>
						</g>
					</g>
				</g>
				<g id="&lt;Group&gt;">
					<g id="&lt;Group&gt;">
						<g id="&lt;Group&gt;">
							<path id="&lt;Path&gt;" class="s40" d="m2025.4 1776.2c0 0-8.6 10.3-16.9 14.8-8.3 4.5-38.9 8.2-43.8 12.8-3.5 3.4-9.4 16.9 39.1 15.6 34.5-0.9 51.1 2 54.8-3.5 3.7-5.5-5.4-40.9-5.4-40.9 0 0-7.6 3.2-27.8 1.2z"/>
						</g>
					</g>
				</g>
				<g id="&lt;Group&gt;">
					<g id="&lt;Group&gt;">
						<g id="&lt;Group&gt;">
							<path id="&lt;Path&gt;" class="s40" d="m2148.7 1319.5c0 0 25.5 40.4 23.6 77-1.9 36.5 2.3 75.6 6.1 113.8 4.2 42.5 15.8 131.1 16.5 153.9 0.6 22.8-0.9 108.4-0.9 108.4l-44.1-0.3c0 0-15.7-173.1-23.3-191.1-7.6-17.9-38.7-148-40-162.4-1.3-14.3 62.1-99.3 62.1-99.3z"/>
						</g>
					</g>
				</g>
				<g id="&lt;Group&gt;">
					<g id="&lt;Group&gt;">
						<g id="&lt;Group&gt;">
							<path id="&lt;Path&gt;" class="s40" d="m2014.7 1325c0 0-10 99.3-12.5 121.7-2.6 22.4-0.8 119.3-2.1 133.3-1.3 14 8.5 161.9 10.9 190l48.5-0.3c0 0 3.3-119.6 3.3-177.7 0-58.2 14.9-125.8 32-164.2 17.1-38.3 56.2-39.2 66.7-110.4 0 0-132.5-15-146.8 7.6z"/>
						</g>
					</g>
				</g>
				<g id="&lt;Group&gt;">
					<g id="&lt;Group&gt;">
						<g id="&lt;Group&gt;">
							<path id="&lt;Path&gt;" class="s35" d="m2109.2 976.1c0 0-33.5-14.4-50.5 10.8-17 25.2-18 77.3-1.2 84.5 16.9 7.2 42.9 5.2 52.5-10.7 9.6-15.8 18.7-38.9 19.1-54.6 0.4-15.7-11.2-25-19.9-30z"/>
						</g>
					</g>
				</g>
				<g id="&lt;Group&gt;">
					<g id="&lt;Group&gt;">
						<g id="&lt;Group&gt;">
							<path id="&lt;Path&gt;" class="s35" d="m2064.1 1066.3c0 0 0.4 21.3-2 25.9-2.3 4.5 44.3 4.6 44.3 4.6 0 0 5.1-28 12.3-48.9 7.1-20.8-54.6 18.4-54.6 18.4z"/>
						</g>
					</g>
				</g>
				<g id="&lt;Group&gt;">
					<g id="&lt;Group&gt;">
						<g id="&lt;Group&gt;">
							<path id="&lt;Path&gt;" class="s40" d="m2117.9 1048.9c0 0-4.6 4.5-17.7 1.8-13-2.7-28.1-20.9-33.5-23.1-5.4-2.2-5.3-5.4-5.3-5.4l-3.7 4.9h-5.8c0 0 6.1-15.3-1.6-22.1-7.7-6.7 10.8-50.1 52.1-33.3 0 0 31.9 10.5 29.8 28.8-2.1 18.3-6.7 39.6-14.3 48.4z"/>
						</g>
					</g>
				</g>
				<g id="&lt;Group&gt;">
					<g id="&lt;Group&gt;">
						<g id="&lt;Group&gt;">
							<path id="&lt;Path&gt;" class="s41" d="m2059.3 1091.6c0 0 0.2-8.6 4.1-9.5 4-0.8 43.5-4.6 48.3-2.7v10.1c0 0-9.3 5.7-52.4 2.1z"/>
						</g>
					</g>
				</g>
				<g id="&lt;Group&gt;">
					<g id="&lt;Group&gt;">
						<g id="&lt;Group&gt;">
							<path id="&lt;Path&gt;" class="s35" d="m2062.6 1015.6c0.9-3.1 9.2-11.5 11.7-1.9 2.6 9.6-5.6 21.9-9.8 20.6-4.1-1.3-4.1-11-1.9-18.7z"/>
						</g>
					</g>
				</g>
				<g id="&lt;Group&gt;">
					<g id="&lt;Group&gt;">
						<g id="&lt;Group&gt;">
							<path id="&lt;Path&gt;" class="s40" d="m2118.7 979.6c0 0 44.8 3.6-0.5 66.7z"/>
						</g>
					</g>
				</g>
				<g id="&lt;Group&gt;">
					<g id="&lt;Group&gt;">
						<g id="&lt;Group&gt;">
							<path id="&lt;Path&gt;" class="s38" d="m2001.7 1103.7c28.1-5 57.6-12.1 57.6-12.1l52.4-2.1c0 0 48 10.6 67 19.1 1.7 0.8 1.8 42.9 6.7 53.9l-15.7 33.1c0 0-9.1 65.6-10.9 94.7-0.9 13.4 18.6 125.5 18.6 125.5 0 0-20.9 6.2-56.6 10.1-35.8 4-125-1.4-125.6-5.6-0.6-4.2 17.3-157.1 18.1-165.1 1.2-12.1-3.5-68.3-3.5-68.3-6.8 9.1-45.7 43-64.7 53.8-13.5 7.6-46.6 3-56.4 2-21.1-2.2-79.5-6.4-80.7-8.5-0.9-1.2 3.4-22.5 5.8-23.3 2.2-0.7 77.5-4.4 96.4-3.5 7.7 0.4 32.7-27.5 32.7-27.5 0 0 43.2-69.3 58.8-76.2z"/>
						</g>
					</g>
				</g>
				<path id="&lt;Path&gt;" class="s42" d="m2288.1 1561.2v249.6c0 30-92.8 54.3-207.3 54.3-114.5 0-207.4-24.3-207.4-54.3v-249.6z"/>
			</g>
			<g id="&lt;Group&gt;">
				<path id="&lt;Path&gt;" class="s43" d="m1730.4 706.9c0 0-8.5 7.5-16.2 19-7.7 11.5-28 12.1-28.9 27.8-0.9 15.8 27.7 16.2 42.7 11.1 15-5.1 17.2-20.4 26.3-24.3 9.1-3.8 13.8-6.9 13.1-14.4-0.7-7.5-5.7-19.6-5.7-19.6 0 0-5.7 1.8-9 2.1-3.3 0.4-14.4 0.5-22.3-1.7z"/>
				<path id="&lt;Path&gt;" class="s44" d="m1833.2 281.2c0 0-5.7 34.2-10.4 56.8q0 0 0 0c-1.8 9.2-3.5 16.4-4.6 18.7-1.3 2.9-12.1 14.5-25.3 28-23.2 23.9-53.8 53.9-53.8 53.9l-12-22.7c0 0 27.2-31.9 45.7-53.1 8.5-9.9 15.1-17.4 16.4-18.5 3.8-3.5 8.3-37.4 14.6-65.4 6.3-28 18.9-43.5 18.9-43.5z"/>
				<path id="&lt;Path&gt;" class="s35" d="m1792.9 384.7c-23.2 23.9-53.8 53.9-53.8 53.9l-12-22.7c0 0 27.2-31.9 45.7-53.1 5.6 2.7 16 9.4 20.1 21.9z"/>
				<g id="&lt;Group&gt;">
					<path id="&lt;Path&gt;" class="s43" d="m1941.5 697.6c0 0 7.8 8.7 12.5 13.9 4.6 5.3 22.5 14.7 22.6 30.4 0.1 17-13.2 15.5-25 14.9-11.8-0.6-21.3-8.8-26.3-18.4-5-9.6-18.2-12.2-19.1-19.9-0.9-7.8 6.1-21.7 6.1-21.7z"/>
				</g>
				<path id="&lt;Path&gt;" class="s45" d="m1913.8 682.3l-1.5 14.5c0 0 24.6 10.7 29.2 0.8l-1.1-12.9z"/>
				<path id="&lt;Path&gt;" class="s45" d="m1731.8 696.5l-1.4 10.4c0 0 14.9 5.3 31.3-0.4l0.3-9.4z"/>
				<path id="&lt;Path&gt;" class="s44" d="m1942.9 434c0.8 3.1-157.6 0-157.6 0 0 0 43.9-31.9 46.7-40.4 2.8-8.5-11.2-59.6-13-76.3-1.4-13.3-5.1-72.8 3.7-81.9 9.1-9.5 42.2-19.5 42.2-19.5l48.1 1.8c0 0 7.9 1.7 13.6 4.3 5.7 2.7 38.2 14.2 43.4 30.5 5.3 16.2-32.4 68.3-32.4 68.3 0 0 0 2.4-0.2 6.2q0 0 0 0c-0.1 5.2-0.3 12.9-0.5 21.4-0.3 10.9-0.5 23-0.5 31.8 0 20.7 5.6 50.8 6.5 53.8z"/>
				<path id="&lt;Path&gt;" class="s38" d="m1942.9 434c0 0 21.5 31.7 21.8 53.3 0.3 21.5-8 81.4-8.6 93.3-0.6 11.9-11.7 110.7-11.7 110.7 0 0-8.7 8.1-34.5-2 0 0-5.7-93.8-6.3-103.8-0.6-10-0.6-56.3-6.4-63-5.8-6.7-40.8-27.6-45.4-31.6-4.5-4-84 15-92.3 17.2-21.6 5.6-11.8 43.1-7 59.9 8 28.2 15 129.8 15 129.8 0 0-15.4 6.6-41.1 1 0 0-50.6-183.5-52.2-201.8-1.6-18.2-2.4-48.3 122.1-71.2z"/>
				<path id="&lt;Path&gt;" class="s35" d="m1878.1 111.4c0 0-41.8-9.5-32.3 43.1 9.6 52.6 19.6 56.7 44.8 45.9 25.2-10.9 23-44.6 24.2-61.1 1.3-16.6-23.4-27.4-36.7-27.9z"/>
				<path id="&lt;Path&gt;" class="s35" d="m1867 229.4c0 0 18.5 19.7 47.8 1.8 0 0-6.6-42.5-3.1-63.2 3.4-20.7-38.2 32.1-38.2 32.1 0.5 0.3 0.9 2.3 1 5.1 0.1 2.3-0.1 5.3-0.4 8.4-0.9 6.9-3 14.1-7.1 15.8z"/>
				<path id="&lt;Path&gt;" class="s35" d="m1900.5 147.5c0.5-4.6 9.7-6.3 10.4 0.7 0.8 6.9-4.1 19.1-7.6 17.9-3.5-1.2-3.6-12.2-2.8-18.6z"/>
				<path id="&lt;Path&gt;" class="s46" d="m1912.8 166.2c0 0-1.1-16.5-7.1-17-6.1-0.6-7 6.1-7 6.1l-6.1 1.2c0 0 1.9-14.6-4.1-17.1-6.1-2.5-39.2 8-44 3.7-4.9-4.2-2.6-33.7 6.2-37.7 8.7-4 33-13.1 50.7-1.1 0 0 13.9-1.5 15.9 9.6 2.1 11.2-0.7 44-4.5 52.3z"/>
				<path id="&lt;Path&gt;" class="s47" d="m1874.1 213.6c30.1-9.3 32.4-27.5 32.4-27.8-9.9 17.1-32 19.4-32 19.4 0.1 2.3-0.1 5.3-0.4 8.4z"/>
				<path id="&lt;Path&gt;" class="s35" d="m1927.1 222.3c0 0-22.1 43.9-57.8 41.1-35.7-2.8-6.1-47-4.4-47.5 1.7-0.4 36.6-9.1 62.2 6.4z"/>
				<path id="&lt;Path&gt;" class="s44" d="m1767.2 431.8c0 0 109.4 13.5 175.7 2.2l-126.6-15.8c0 0-0.8 3.2-49.1 13.6z"/>
				<path id="&lt;Path&gt;" class="s35" d="m1849 413.2l-8.1 4.1c0 0 1.8 13 6.3 16.9l9.1-2.3c0 0-1.9-14.2-7.3-18.7z"/>
				<path id="&lt;Path&gt;" class="s44" d="m1975.6 386.7c-1.6 1.9-23.1 10.5-47.4 19.9-33.2 12.8-70.6 24.9-70.6 24.9l-8.6-18.3c0 0 39.2-21.3 65.7-36.2 12.5-7.1 22.2-12.7 23.6-14 4.2-4.1 5.3-10.6 2.2-21.9-3.1-11.4-10.3-63.5-11.2-69.6-0.8-6.1 2.1-22.3 17.3-23.1 15.2-0.8 22.9 3.5 22.9 3.5 0 0 3.9 1.6 6.7 38.5 2.8 36.9 3.2 91.9-0.6 96.3z"/>
				<path id="&lt;Path&gt;" class="s48" d="m1937.4 327q0 0 0 0c-0.1 5.2-0.3 12.9-0.5 21.4-14.9-36.4-6.3-65.4-6.1-65.9-1.6 9.8 6.5 44 6.6 44.5z"/>
				<path id="&lt;Path&gt;" class="s48" d="m1822.8 338q0 0 0 0c-1.8 9.2-3.5 16.4-4.6 18.7-5.1-24.5-0.5-56-0.5-56 0.7 15 5.1 37.3 5.1 37.3z"/>
				<path id="&lt;Path&gt;" class="s35" d="m1928.2 406.6c-33.2 12.8-71.9 25.3-71.9 25.3l-7.3-18.7c0 0 39.2-21.3 65.7-36.2 0 0 9.7 4.7 13.5 29.6z"/>
				<path id="&lt;Path&gt;" class="s49" d="m1846.7 433l-155.5-2.3 78.5 39.8z"/>
				<path id="&lt;Path&gt;" class="s50" d="m1769.7 470.5l77-29.8v-7.7l-83.1 29.9z"/>
				<g id="&lt;Group&gt;">
					<path id="&lt;Path&gt;" class="s35" d="m1842.6 417.6c0 0-9.7-1.5-16.4-3.1-5.2-1.2-18.1 0.5-21.4 3.8-3.3 3.4-13.7 26.6-15.7 28-2 1.4 1 4.7 4.5 3.1 0 0 3.2 10.1 11 6.3 7.9-3.8 13.3-12.1 17.4-13.6 4.1-1.4 28.1-8.8 28.1-8.8 0 0-1.3-18.1-7.5-15.7z"/>
				</g>
				<g id="&lt;Group&gt;">
					<path id="&lt;Path&gt;" class="s35" d="m1807.2 416.8c0 0-6.2 3-7.9 4.4-1.6 1.3-8.2 6.3-9.8 7.4-1.6 1.2 2.4 4.5 14.2-0.6 11.8-5.1 3.5-11.2 3.5-11.2z"/>
				</g>
				<path id="&lt;Path&gt;" class="s51" d="m1769.7 470.5l-46.2-126.2-149.1 2.4 44.1 116.3z"/>
				<path id="&lt;Path&gt;" class="s52" d="m1675.8 400.1c4.5 9.1 3.1 19-3.1 22.1-6.2 3.2-15-1.7-19.5-10.8-4.6-9.1-3.2-19 3-22.1 6.3-3.1 15 1.7 19.6 10.8z"/>
			</g>
			<path id="&lt;Path&gt;" class="s36" d="m989.5 1861.2c0 31.9 98.8 57.7 220.6 57.7 121.9 0 220.7-25.8 220.7-57.7 0-32-98.8-57.8-220.7-57.8-121.8 0-220.6 25.8-220.6 57.8z"/>
			<path id="&lt;Path&gt;" class="s37" d="m1002.8 1846.9c0 30 92.8 54.3 207.3 54.3 114.5 0 207.4-24.3 207.4-54.3 0-30-92.9-54.3-207.4-54.3-114.5 0-207.3 24.3-207.3 54.3z"/>
			<g id="&lt;Group&gt;">
				<g id="&lt;Group&gt;">
					<g id="&lt;Group&gt;">
						<g id="&lt;Group&gt;">
							<g id="&lt;Group&gt;">
								<g id="&lt;Group&gt;">
									<path id="&lt;Path&gt;" class="s53" d="m990.4 1189.7c0 0-7.2-6.7-5.7-11.7 1.2-4.3-0.7-9-1.1-11-0.6-2.6-0.9-11.1-2.8-10.7-3.4 0.8-2.6 14.4-3 17.3-0.4 2.9-9.2-6.8-12.2-7.3-3-0.5-18.2 14.9-11.4 20.9 6.8 5.9 16.1 8.3 17.1 9.6 1 1.3 5.7 4.8 5.7 4.8z"/>
								</g>
							</g>
						</g>
					</g>
					<g id="&lt;Group&gt;">
						<g id="&lt;Group&gt;">
							<g id="&lt;Group&gt;">
								<g id="&lt;Group&gt;">
									<path id="&lt;Path&gt;" class="s53" d="m967.5 1167.3c0 0-21.9-16.8-24.3-16.7-2.4 0.1-3.3 1.3-1.3 3 2 1.6 20.8 16.9 20.8 16.9 0 0-29.4-15.6-31.4-15.9-1.2-0.3-2 2-1.1 3 1 0.9 28.4 18.1 28.4 18.1 0 0-27.5-14.5-29.2-14.2-1.6 0.1-2.7 2.7-0.7 3.9 2 1.2 26.7 16.1 26.7 16.1 0 0-20.7-9.3-22-8.3-0.9 0.7-2.1 2.1 3.3 4.3 5.4 2.3 17.2 9.4 17.2 9.4z"/>
								</g>
							</g>
						</g>
					</g>
				</g>
				<g id="&lt;Group&gt;">
					<path id="&lt;Path&gt;" class="s40" d="m1143.2 986.4c0 0-52.6-4.3-51.2 51 1.4 55.3 10.2 63.6 0 102.7-10.3 39.1 51.2-22.2 51.2-22.2z"/>
				</g>
				<g id="&lt;Group&gt;">
					<g id="&lt;Group&gt;">
						<path id="&lt;Path&gt;" class="s54" d="m1303.4 1814.4c0 0 19.5 27.5 16.8 31.8-2.7 4.4-23.2 5-35.7 0-12.5-5-12.8-37.1-18.5-50.9-2.3-5.8 2.7-22.9 9.9-24.1 7.1-1.3 14.8 2.4 14.8 2.4 0 0-7.4 19.4 12.7 40.8z"/>
					</g>
				</g>
				<g id="&lt;Group&gt;">
					<g id="&lt;Group&gt;">
						<g id="&lt;Group&gt;">
							<path id="&lt;Path&gt;" class="s35" d="m1290.9 1773.4c0 0 4.1 11.6 5.6 22.8 1.2 9.3 13.9 28.9 13.3 31.4-0.6 2.5-16.7 4.7-23.2-1.7-6.6-6.4-10.8-25-12.2-36.2-1.4-10.3-3.1-15.5-3.1-15.5 0 0 13.3-7.7 19.6-0.8z"/>
						</g>
					</g>
				</g>
				<g id="&lt;Group&gt;">
					<g id="&lt;Group&gt;">
						<path id="&lt;Path&gt;" class="s54" d="m1133.4 1814.9c0 0 18.8 27 16.1 31.3-2.7 4.4-23.2 5-35.7 0-12.5-5-12.8-37.1-18.4-50.9-2.4-5.8 2.7-22.9 9.8-24.1 7.1-1.3 15.5 2.6 15.5 2.6 0 0-7.3 19.7 12.7 41.1z"/>
					</g>
				</g>
				<g id="&lt;Group&gt;">
					<g id="&lt;Group&gt;">
						<g id="&lt;Group&gt;">
							<path id="&lt;Path&gt;" class="s35" d="m1120.7 1773.8c0 0 1.4 12.8 3.8 21.8 2.4 9 15.2 29.5 14.6 32-0.6 2.5-16.7 4.7-23.2-1.7-6.6-6.4-11.6-24.9-12.2-36.2-0.6-11.2 1.5-18.5 1.5-18.5 0 0 9.2-4.2 15.5 2.6z"/>
						</g>
					</g>
				</g>
				<g id="&lt;Group&gt;">
					<g id="&lt;Group&gt;">
						<g id="&lt;Group&gt;">
							<path id="&lt;Path&gt;" class="s55" d="m1214.7 1327.2c0 0 16.8 81.4 20.6 101.9 3.9 20.4 14.7 119.6 15.8 136.5 1.2 16.9 17.5 80.4 16.7 86.4-0.7 6.1 26.5 125.5 26.5 125.5 0 0-19.3 2.1-27-1.2-5.3-2.2-47.6-109.9-47.6-140 0-41.6-23.3-96-26.6-105.5-33.2-93.2-39.3-115.4-43.9-121 0 0-0.7 7.6-2.3 20.3-1.8 14.5-9.7 118.3-13.2 132-3.4 13.6-0.7 59.8-2.7 83.1-1.9 23.3-5.5 129.5-5.5 129.5 0 0-17.3 0.8-25-3.8-2.6-1.5-11.4-114.1-11.8-141.9-0.4-27.7-0.8-65.9-1.5-77.9-7.2-114.8-24.7-131.2 2.9-212.5 51.7-152.1 124.6-11.4 124.6-11.4z"/>
						</g>
					</g>
				</g>
				<g id="&lt;Group&gt;">
					<g id="&lt;Group&gt;">
						<path id="&lt;Path&gt;" class="s54" d="m1265.5 1792.9v28.7h3.6v-22.2z"/>
					</g>
				</g>
				<g id="&lt;Group&gt;">
					<g id="&lt;Group&gt;">
						<path id="&lt;Path&gt;" class="s54" d="m1094.8 1792.9v28.7h3.6v-22.2z"/>
					</g>
				</g>
				<g id="&lt;Group&gt;">
					<path id="&lt;Path&gt;" class="s35" d="m1165 1133.6c0 0-4.6-10.8-8-23q-0.3-0.9-0.5-1.8-0.6-2.4-1.1-4.8-0.3-1.3-0.5-2.7c-1.3-6.7-1.6-13.1 0-17.7 5-15.1-32-4.6-32-4.6 0 0 7.2 39.8 0 53.3-7.2 13.4 42.1 1.3 42.1 1.3z"/>
				</g>
				<g id="&lt;Group&gt;">
					<path id="&lt;Compound Path&gt;" class="s56" d="m1095.7 1352.7c0 0 77.4 19 116.5-2.3 0 0-13.3-56-7.1-78 6.3-22 38.9-98.7 38.9-98.7 0 0-23.6-34.2-41.7-40.5-18.1-6.2-41.4-10.1-41.4-10.1l-33.8 2.9c0 0-29.1 1.8-24.9 7 24.4 30.5-6.5 219.7-6.5 219.7z"/>
				</g>
				<g id="&lt;Group&gt;">
					<path id="&lt;Path&gt;" class="s57" d="m1088.3 1225.4c0 0 1.6 3.2 5.7 15.9 4.3-35.6 2.1-54.1 2.1-54.1-0.5 19-7.8 38.2-7.8 38.2z"/>
				</g>
				<g id="&lt;Group&gt;">
					<path id="&lt;Path&gt;" class="s35" d="m1125.2 1124.8l39.8 32.5-4.1-34.2c0 0-23.2-5-35.7 1.7z"/>
				</g>
				<g id="&lt;Group&gt;">
					<path id="&lt;Path&gt;" class="s44" d="m1098.9 1261.8c5.5 22.7-22.3 93.9-22.3 93.9l46.8 15.8c5.8 2 12-1.7 13.1-7.7 5.2-29.6 18.9-109 20.5-144.2 1.9-43.7-29.9-95.3-29.9-95.3-56.6 9.7-41.1 95.3-41.1 95.3 0 0 2.1 5.4 4.8 13.9q1 3.1 2.2 6.9c1.9 6.3 4 13.6 5.9 21.4z"/>
				</g>
				<g id="&lt;Group&gt;">
					<path id="&lt;Path&gt;" class="s44" d="m1164.9 1125l-0.7-1.9c0 0 29 4.4 43.7 11.8 14.8 7.3 43 45.3 43 45.3l-36.9 48.7c0 37.4 13 125.2 13 125.2l-25.6 10.5c-4 1.6-8.4-1.3-8.5-5.6-0.4-26.7-1.6-105.9-2.2-136.7-0.8-37.5-27.5-98-27.5-98q0.9 0.3 1.7 0.7z"/>
				</g>
				<g id="&lt;Group&gt;">
					<path id="&lt;Path&gt;" class="s35" d="m1217.5 1300.4c0 0-27.8 1.1-32.1 0-4.4-1.1-33.2-13.6-35-26-1.7-12.3 67.1 11.1 67.1 11.1z"/>
				</g>
				<g id="&lt;Group&gt;">
					<path id="&lt;Path&gt;" class="s58" d="m1131.2 1261.8l112.8-13.2-50.9 41.4z"/>
				</g>
				<g id="&lt;Group&gt;">
					<path id="&lt;Path&gt;" class="s59" d="m1193.1 1290l-61.9-21.1v-7.1l64 20.5z"/>
				</g>
				<g id="&lt;Group&gt;">
					<path id="&lt;Path&gt;" class="s60" d="m1158.9 1116.8l21.4 34 10.4 6.5-24.2-33.8z"/>
				</g>
				<g id="&lt;Group&gt;">
					<path id="&lt;Path&gt;" class="s61" d="m1180.3 1150.8l-15.3 6.5-4.1-34.2-2-6.3z"/>
				</g>
				<g id="&lt;Group&gt;">
					<path id="&lt;Path&gt;" class="s44" d="m1214.1 1284.5c0 0 1.1 14.3 0 17.3 0 0 69.6-6.9 76-16.6 6.5-9.8 6.3-21.6 6.3-21.6z"/>
				</g>
				<g id="&lt;Group&gt;">
					<path id="&lt;Path&gt;" class="s59" d="m1193.1 1290l32.9-122.3 125.1-13.2-34.3 112.6z"/>
				</g>
				<g id="&lt;Group&gt;">
					<path id="&lt;Path&gt;" class="s44" d="m1030.9 1220.1c-6.3-5.2-9.9-7.1-17.5-13.6-11.8-10.1-26.8-22.9-26.8-22.9l-14.3 20.9c0 0 34.6 30.4 52.9 48.5 0 0 23.3 25 28.5 22.8 5.2-2.3 23.7-29.1 38.5-55 14.9-25.8 21.5-42.3 22.2-53.6 0.8-11.2-36.5-16.6-36.5-16.6l-29.1 63.7c0 0-5.2 9.1-7.9 11.8 0 0-6.5-3.7-10-6z"/>
				</g>
				<g id="&lt;Group&gt;">
					<path id="&lt;Path&gt;" class="s35" d="m1138 992c13-2.1 42.9 1.2 51.3 35.4 0 0 0 9.5-1.4 17.1-1.4 7.6 7.7 28.6 6.1 29.8-1.6 1.3-8.6 3.5-8.6 3.5 0 0-4.9 24.6-13.3 25.3-8.3 0.8-40.6-2.1-58.8-29.9-18.2-27.8-27.9-72.5 24.7-81.2z"/>
				</g>
				<g id="&lt;Group&gt;">
					<path id="&lt;Path&gt;" class="s40" d="m1189.3 1027.4c0 0-19.6 16.9-40.4 22.3-20.8 5.3-31.8 28.7-31.8 28.7 0 0-36.7-36.7-14.5-72.3 22.1-35.6 86.7-19.7 86.7 21.3z"/>
				</g>
				<g id="&lt;Group&gt;">
					<path id="&lt;Path&gt;" class="s40" d="m1145.1 1050.9c0 0-21.8 57.1-19.2 70.9 0 0-10.8-1.9-30.8 4.2 0 0 9.7-102 50-75.1z"/>
				</g>
				<g id="&lt;Group&gt;">
					<path id="&lt;Path&gt;" class="s61" d="m1153.5 1151.8l11.5 5.5-39.1-38.8z"/>
				</g>
				<g id="&lt;Group&gt;">
					<path id="&lt;Path&gt;" class="s60" d="m1125.9 1118.5l27.6 33.3-15.1 13.5-16.3-39.9z"/>
				</g>
				<g id="&lt;Group&gt;">
					<path id="&lt;Path&gt;" class="s47" d="m1133.5 1092.6c0.2 0.3 6.1 9.6 23 16.2q-0.6-2.4-1.1-4.8-0.3-1.3-0.5-2.7c0 0-14-3.4-21.4-8.7z"/>
				</g>
				<g id="&lt;Group&gt;">
					<path id="&lt;Path&gt;" class="s62" d="m1268.1 1218.8c-3.5 6.6-3.4 13.4 0.2 15.3 3.5 1.9 9.2-1.9 12.7-8.4 3.5-6.6 3.4-13.4-0.1-15.3-3.6-1.9-9.3 1.9-12.8 8.4z"/>
				</g>
				<g id="&lt;Group&gt;">
					<path id="&lt;Path&gt;" class="s44" d="m1122.1 1125.4c0 0-36.5-4.9-47.1 33.2 0 0 46.4-4.9 47.1-33.2z"/>
				</g>
			</g>
			<path id="&lt;Path&gt;" class="s63" d="m1417.5 1597.4v249.5c0 30-92.9 54.3-207.4 54.3-114.5 0-207.3-24.3-207.3-54.3v-249.5z"/>
		</g>
	</g>
</svg>